<svg id="Layer_2" data-name="Layer 2" xmlns="http://www.w3.org/2000/svg" viewBox="0 0 641.79 588.56"><defs><style>.cls-1{fill:#050259;}.cls-2{fill:#f28705;}.cls-3{fill:#0abeef;}</style></defs><circle class="cls-1" cx="343.32" cy="338.06" r="208.39"/><path class="cls-2" d="M483.59,464.7l9.09,27.48a5.65,5.65,0,0,0,10,1.49L540.6,440.1l-2-12.53-57.68,25Z" transform="translate(-19.01 -41.06)"/><path class="cls-2" d="M263.28,450.85l4.44,5.29a7.47,7.47,0,0,0,9.61,1.58l70.6-43.07-13.73-15.5-69,40.46A7.46,7.46,0,0,0,263.28,450.85Z" transform="translate(-19.01 -41.06)"/><path class="cls-3" d="M273.26,476.28l12-22.09a1.71,1.71,0,0,0-2-2.46l-6.84,1.54,26.73-31.56,23.49,20.43L345,465l7.54,22.08H300.84l4.08-5.32a2.78,2.78,0,0,0-2.44-3.77Z" transform="translate(-19.01 -41.06)"/><path class="cls-2" d="M411.47,462.06S392.63,480.85,365,482.89c-14.15-12.43-22.15-20.83-22.15-20.83l-35.07-37.37,40.43-24.29Z" transform="translate(-19.01 -41.06)"/><path class="cls-2" d="M293.86,427.93s44.95,28.73,54.1,60.63a5.55,5.55,0,0,0,7.65,3.52l6.43-3a5.8,5.8,0,0,0,2.59-8c-7.37-13.49-28-47.94-52.35-59.38C300.2,423.41,293.86,427.93,293.86,427.93Z" transform="translate(-19.01 -41.06)"/><path class="cls-2" d="M372,81.6,321.07,115l-1.18-21.54a7.76,7.76,0,0,0-6.43-8.21l-2.14-.37,49.3-31Z" transform="translate(-19.01 -41.06)"/><polygon class="cls-2" points="412.08 194.17 338.15 6.83 341.15 5.31 421.23 193.6 412.08 194.17"/><path class="cls-2" d="M422.08,241.85S414.8,229.2,425.85,227s20.35-6.3,23.79,4.8S422.08,241.85,422.08,241.85Z" transform="translate(-19.01 -41.06)"/><path class="cls-2" d="M297,381.53s-6.9-56.89,60.83-101.6,15,80.35,15,80.35Z" transform="translate(-19.01 -41.06)"/><path class="cls-3" d="M593.94,257.94c40.32,28.62-27,108.81-98.37,135.3S351.7,403.91,335.23,357.3c-16.18-45.81,29.22-109.48,103.42-126.37C517.25,213.05,564.33,236.93,593.94,257.94Z" transform="translate(-19.01 -41.06)"/><path class="cls-2" d="M267.29,388.65a4.41,4.41,0,0,1,1.41-7.34l94.24-36.4s9.55-4.06,27.94,12.7c3.74,2.84,8.42,7.49,31.27,1.15s126.78-41.05,170.18-100c2-3.34,49.53-45.7,61.46-58.32,1.43-1.52,3.43-2.3,5.2-1.21h0a3.79,3.79,0,0,1,1.5,4.72l-50.38,64.64s24,116.68-69.51,171.55c-31.5,15.51-94.52,43.26-132.85,27.62-16.46-6.35-25.38-11.14-35.77-23.94-17.82-11.86-45.46-24.12-49.87-22.75s-32.68-11.84-32.68-11.84Z" transform="translate(-19.01 -41.06)"/><path class="cls-2" d="M236.94,439.64l14.34,16.26a6.89,6.89,0,0,0,8.71,1.35l107.73-64.78a6.89,6.89,0,0,0,1.36-10.73L364,376.59a6.88,6.88,0,0,0-7.77-1.42l-117,53.66A6.88,6.88,0,0,0,236.94,439.64Z" transform="translate(-19.01 -41.06)"/><circle class="cls-2" cx="405.49" cy="354.25" r="18.2"/><path class="cls-3" d="M424.5,408.51a13.2,13.2,0,1,1,13.19-13.19A13.21,13.21,0,0,1,424.5,408.51Z" transform="translate(-19.01 -41.06)"/><circle class="cls-2" cx="473.89" cy="329.66" r="18.2"/><path class="cls-3" d="M492.89,383.92a13.2,13.2,0,1,1,13.2-13.2A13.21,13.21,0,0,1,492.89,383.92Z" transform="translate(-19.01 -41.06)"/><circle class="cls-2" cx="533.04" cy="294.53" r="18.2"/><path class="cls-3" d="M552,348.79a13.2,13.2,0,1,1,13.2-13.2A13.21,13.21,0,0,1,552,348.79Z" transform="translate(-19.01 -41.06)"/><circle class="cls-2" cx="338.9" cy="3.98" r="3.98"/><path class="cls-3" d="M241.4,478.62,44.66,585.29a2.24,2.24,0,0,0,.67,4.21h0a2.33,2.33,0,0,0,1.11-.12l240.64-84.3a2.23,2.23,0,0,0-.09-4.21c-16.77-5.38-31.67-12.53-43.19-22A2.22,2.22,0,0,0,241.4,478.62Z" transform="translate(-19.01 -41.06)"/><path class="cls-3" d="M219.72,434.82c-1.26-15.06,2.37-32.83,12.27-53.76a2.78,2.78,0,0,0-3.55-3.78L20.75,480.57a2.79,2.79,0,0,0,.64,5.34h0a2.85,2.85,0,0,0,1.23-.09l195.14-48.13A2.78,2.78,0,0,0,219.72,434.82Z" transform="translate(-19.01 -41.06)"/><path class="cls-3" d="M363.6,514.78,163.79,624.57a2.68,2.68,0,0,0,.85,5h0a2.79,2.79,0,0,0,1.34-.15L469.55,519a2.68,2.68,0,0,0-1.15-5.17c-22.69,1.72-62.32,3.67-103.37.69A2.74,2.74,0,0,0,363.6,514.78Z" transform="translate(-19.01 -41.06)"/></svg>