<svg id="Layer_2" data-name="Layer 2" xmlns="http://www.w3.org/2000/svg" xmlns:xlink="http://www.w3.org/1999/xlink" viewBox="0 0 1039.72 619.97"><defs><style>.cls-1{fill:none;}.cls-2{fill:#cecece;}.cls-3{fill:#050259;}.cls-4{fill:#1b0140;}.cls-5{fill:#f28705;}.cls-6{fill:#0abeef;}.cls-7{fill:#5505a6;}.cls-8{clip-path:url(#clip-path);}</style><clipPath id="clip-path" transform="translate(-38.54 -21.32)"><path class="cls-1" d="M684.76,368.91a4.4,4.4,0,0,1,1.41-7.34l94.24-36.4s9.55-4.06,27.93,12.7c3.74,2.84,8.43,7.49,31.28,1.15s126.77-41,170.17-100c2-3.34,53-44.93,61.46-58.32a3.79,3.79,0,0,1,5.2-1.21h0a3.81,3.81,0,0,1,1.51,4.72l-50.39,64.64s24,116.68-69.51,171.55c-31.5,15.51-94.52,43.26-132.84,27.62-16.46-6.36-25.39-11.15-35.77-24-17.82-11.85-45.47-24.11-49.87-22.74s-32.69-11.84-32.69-11.84Z"/></clipPath></defs><circle class="cls-2" cx="741.26" cy="338.06" r="208.39"/><path class="cls-2" d="M779.79,151H82.17c-39.63,0-58.66,48.63-29.55,75.53L187.1,350.81a43.52,43.52,0,0,0,29.55,11.57h375Z" transform="translate(-38.54 -21.32)"/><path class="cls-3" d="M419.1,250.72c-9.27-.55-14.86-.64-20-.68v30.18h-4.18V250c-5.13,0-10.77.13-19.95.68l-.14-3c7.41-.54,14.82-.77,22.18-.77s14.78.23,22.18.77Z" transform="translate(-38.54 -21.32)"/><path class="cls-3" d="M446,266.63c4.18,0,8.27-.05,12.23-.23a50.5,50.5,0,0,0,.45-6.36,39.66,39.66,0,0,0-.41-5.68c-4.86-.37-9.64-.55-14.68-.55-4.77,0-9.59,0-14.36.41v26h-3.91V251.58c6.09-.36,12.22-.45,18.31-.45A129.89,129.89,0,0,1,462,252a43.94,43.94,0,0,1,.78,7.72,52,52,0,0,1-.78,9.1c-4.86.27-10.36.27-15.5.31l15.82,11.05H457.2l-18.45-12.77v-.82Z" transform="translate(-38.54 -21.32)"/><path class="cls-3" d="M498.11,251.76l15.1,28.46h-4L504.75,272H476.7l-4.45,8.27h-4l15.09-28.46c2.64-.22,4.82-.31,7.36-.31S495.43,251.54,498.11,251.76Zm-12,2.82-7.87,14.59h25.05l-7.86-14.59c-1.46-.13-3.09-.22-4.69-.22S487.52,254.45,486.07,254.58Z" transform="translate(-38.54 -21.32)"/><path class="cls-3" d="M523.53,280.22h-4V251.58h4Z" transform="translate(-38.54 -21.32)"/><path class="cls-3" d="M572,280.22h-4l-24.14-25.5c-2.5-.14-4.5-.18-6.95-.18v25.68h-4V251.58h.86c3.91,0,8.09.09,12.46.32L568,275.26V251.58h4Z" transform="translate(-38.54 -21.32)"/><path class="cls-3" d="M585.49,280.22h-4V251.58h4Z" transform="translate(-38.54 -21.32)"/><path class="cls-3" d="M634,280.22h-4l-24.14-25.5c-2.5-.14-4.5-.18-7-.18v25.68h-4V251.58h.86c3.91,0,8.09.09,12.46.32L630,275.26V251.58h4Z" transform="translate(-38.54 -21.32)"/><path class="cls-3" d="M678.09,277.13c.41-1.91.63-3.87.68-9.23H668.18v-2.36h14.59c-.09,8.13-.41,11.22-.95,14.23q-9.42.89-18.78.9c-6.36,0-12.68-.31-19-.9-.41-4.73-.73-9.14-.73-13.87s.23-9.23.68-14c6.41-.5,12.73-.77,19.09-.77s13.05.13,19.59.68v2.86c-5.72-.45-12.36-.63-18-.63-5.41,0-11.46.09-16.87.54-.31,3.82-.5,7.46-.5,11.32s.23,7.46.55,11.23c5,.45,10.27.63,15.27.63C667.86,277.76,673.27,277.58,678.09,277.13Z" transform="translate(-38.54 -21.32)"/><path class="cls-3" d="M266.54,329.23V296.78c7-.55,14.14-.73,21.1-.73,6.41,0,12.72.13,19.18.68v3c-5.64-.5-12.05-.68-17.91-.68s-12.23.23-18.23.63v12.41H297l.05,2.73H270.68v14.41Z" transform="translate(-38.54 -21.32)"/><path class="cls-3" d="M339.64,316H316.19v10.27c5.45.45,11.22.64,16.63.64,5.05,0,10.64-.19,15.59-.64V329c-5.72.46-11.18.68-16.81.68-6.46,0-13-.22-19.41-.68V300.82c6.54-.45,13.27-.68,19.81-.68,5.51,0,10.82.23,16.37.68v2.77c-5.05-.45-10.86-.63-16-.63-5.31,0-10.91.18-16.22.59v10.23H339.6Z" transform="translate(-38.54 -21.32)"/><path class="cls-3" d="M394.69,301.18a44.45,44.45,0,0,1,0,27.5,183.15,183.15,0,0,1-19.36,1c-5.32,0-10.64-.18-19.18-.5V300.59c7.72-.22,13.81-.45,19.18-.45A175.58,175.58,0,0,1,394.69,301.18ZM391,326.28a46.1,46.1,0,0,0,1.45-11.37,43.82,43.82,0,0,0-1.5-11.36c-5.18-.46-10.18-.64-15.63-.64s-10.23.18-15.23.5v23c5,.36,9.91.54,15.23.54S385.83,326.73,391,326.28Z" transform="translate(-38.54 -21.32)"/><path class="cls-3" d="M433.42,316H410v10.27c5.45.45,11.23.64,16.64.64,5,0,10.63-.19,15.59-.64V329c-5.73.46-11.18.68-16.82.68-6.46,0-13-.22-19.41-.68V300.82c6.55-.45,13.27-.68,19.82-.68,5.5,0,10.82.23,16.36.68v2.77c-5-.45-10.86-.63-15.95-.63-5.32,0-10.91.18-16.23.59v10.23h23.41Z" transform="translate(-38.54 -21.32)"/><path class="cls-3" d="M470.61,315.64c4.18,0,8.27-.05,12.23-.23a50.36,50.36,0,0,0,.45-6.36,38.27,38.27,0,0,0-.41-5.68c-4.86-.37-9.63-.55-14.68-.55-4.77,0-9.59,0-14.36.41v26h-3.91V300.59c6.09-.36,12.23-.45,18.32-.45a129.89,129.89,0,0,1,18.32.91,45,45,0,0,1,.77,7.73,52.8,52.8,0,0,1-.77,9.09c-4.87.27-10.37.27-15.5.31l15.81,11.05h-5.09l-18.45-12.77v-.82Z" transform="translate(-38.54 -21.32)"/><path class="cls-3" d="M522.71,300.78l15.09,28.45h-4L529.34,321h-28l-4.46,8.27h-4l15.09-28.45c2.64-.23,4.82-.32,7.37-.32S520,300.55,522.71,300.78Zm-12.05,2.81-7.86,14.59h25L520,303.59c-1.46-.13-3.09-.22-4.68-.22S512.12,303.46,510.66,303.59Z" transform="translate(-38.54 -21.32)"/><path class="cls-3" d="M574.17,303.68c-8.18-.45-13.09-.59-17.5-.63v26.18h-4V303.05c-4.41,0-9.37.18-17.5.63v-2.86q9.81-.68,19.5-.68t19.5.68Z" transform="translate(-38.54 -21.32)"/><path class="cls-3" d="M584.13,329.23h-4V300.59h4Z" transform="translate(-38.54 -21.32)"/><path class="cls-3" d="M613.81,329.68c-6.59,0-13.27-.31-19.91-.9-.36-4.73-.55-9.14-.55-13.87s.19-9.13.55-13.86c6.64-.59,13.32-.91,19.91-.91s13.23.32,19.86.91c.37,4.73.55,9.13.55,13.86s-.18,9.14-.55,13.87C627,329.37,620.35,329.68,613.81,329.68ZM598,326.14c5.23.45,10.59.64,15.82.64s10.54-.19,15.77-.64c.32-3.77.55-7.36.55-11.23s-.23-7.45-.55-11.23c-5.23-.45-10.59-.63-15.77-.63s-10.59.18-15.82.63c-.32,3.78-.54,7.37-.54,11.23S597.67,322.37,598,326.14Z" transform="translate(-38.54 -21.32)"/><path class="cls-3" d="M682.59,329.23h-4l-24.14-25.5c-2.5-.14-4.5-.18-7-.18v25.68h-4V300.59h.86c3.91,0,8.09.09,12.45.32l21.78,23.37V300.59h4Z" transform="translate(-38.54 -21.32)"/><path class="cls-4" d="M151.79,187.15,136.21,236a80.36,80.36,0,0,1-10.61.65,122.86,122.86,0,0,1-13.14-.65l-18.93-58.6h14.36l15.1,48.8c.16.25,1.06.33,1.71.33s1.39-.08,1.55-.33l15.18-48.31a90.4,90.4,0,0,1,22.93,0l15.18,48.31c.16.25,1,.33,1.55.33s1.55-.08,1.71-.33l15.1-48.8h14.28L193.25,236a122.54,122.54,0,0,1-13.06.65,79.19,79.19,0,0,1-10.53-.65l-15.75-48.88a3.6,3.6,0,0,0-1.06-.09A3.92,3.92,0,0,0,151.79,187.15Z" transform="translate(-38.54 -21.32)"/><path class="cls-4" d="M267.17,185l24.72,51.17h-13.3l-5.79-11.67H227.35l-5.8,11.67h-13.3L233.06,185c6.2-.49,11.26-.65,17.05-.65S261,184.53,267.17,185Zm-24.81,9.22-10.53,21.22h36.48l-10.53-21.22a76.27,76.27,0,0,0-7.67-.32A77.14,77.14,0,0,0,242.36,194.24Z" transform="translate(-38.54 -21.32)"/><path class="cls-4" d="M338.24,208.93,356,184.78h14.28l-24.48,33.78c-3.92.33-7,.49-10.69.57v17.06H320.69V219.13c-3.75-.08-6.77-.16-10.69-.57l-24.56-33.78h14.28l17.87,24.15c2.7.17,7.1.33,10.29.33S335.47,209.1,338.24,208.93Z" transform="translate(-38.54 -21.32)"/><path class="cls-4" d="M378.38,236.19V185c11.43-.73,22.85-1.06,34-1.06,10.94,0,21.46.25,32.32,1v9.55c-8.41-.82-18.2-1-27.34-1-7.67,0-17.22.25-25.71.82v14.36h37.05v8.57H391.68v18.93Z" transform="translate(-38.54 -21.32)"/><path class="cls-4" d="M498,185l24.72,51.17h-13.3l-5.79-11.67H458.18l-5.79,11.67h-13.3L463.9,185c6.2-.49,11.26-.65,17.05-.65S491.8,184.53,498,185Zm-24.81,9.22-10.53,21.22h36.48l-10.53-21.22a93,93,0,0,0-15.42,0Z" transform="translate(-38.54 -21.32)"/><path class="cls-4" d="M564.5,211.22c8.57,0,16.33,0,23.83-.41a66.17,66.17,0,0,0,.66-9,55.78,55.78,0,0,0-.58-8.24c-7.34-.57-14.19-.9-22.27-.9-7.27,0-14.53.09-21.71.66l-.08,42.84H531.13V184.78c11.67-.65,23.42-.82,35.09-.82,10.69,0,24,.17,34.92,2.21a88.12,88.12,0,0,1,1.47,14.6,90.41,90.41,0,0,1-1.47,18c-6.2.32-13,.49-19.74.65l21.78,16.81H586.46l-21.87-16.65h-.09l-4.32-3.34-4.57-3.51v-1.47Z" transform="translate(-38.54 -21.32)"/><path class="cls-4" d="M666.83,213.91H628.15v12.81c9.06.82,18.69,1.06,27.66,1.06,8.81,0,18.77-.24,27.5-1.06v9.22c-11.1.74-21.62,1.07-32.48,1.07-11.91,0-24.15-.33-36-1.07V185c12.4-.73,25.29-1.06,37.7-1.06,10.2,0,20.15.33,30.6,1.06v9.22c-9.06-.81-19.91-1.06-29-1.06-8.57,0-17.54.25-26,1v12.9h38.68Z" transform="translate(-38.54 -21.32)"/><path class="cls-4" d="M727.29,211.22c8.57,0,16.32,0,23.83-.41a66.15,66.15,0,0,0,.65-9,55.77,55.77,0,0,0-.57-8.24c-7.34-.57-14.2-.9-22.28-.9-7.26,0-14.52.09-21.7.66l-.09,42.84H693.91V184.78c11.67-.65,23.42-.82,35.09-.82,10.69,0,24,.17,34.93,2.21a88.12,88.12,0,0,1,1.47,14.6,91.17,91.17,0,0,1-1.47,18c-6.2.32-13,.49-19.75.65L766,236.19H749.24l-21.87-16.65h-.08L723,216.2l-4.56-3.51v-1.47Z" transform="translate(-38.54 -21.32)"/><path class="cls-5" d="M901.05,445l9.09,27.48a5.65,5.65,0,0,0,10,1.49l37.94-53.57-2-12.53-57.68,25Z" transform="translate(-38.54 -21.32)"/><path class="cls-3" d="M680.74,431.11l4.44,5.29a7.47,7.47,0,0,0,9.61,1.58l70.61-43.07L751.66,379.4l-69,40.47A7.47,7.47,0,0,0,680.74,431.11Z" transform="translate(-38.54 -21.32)"/><path class="cls-6" d="M690.72,456.54l12-22.09a1.7,1.7,0,0,0-2-2.46L694,433.53,720.68,402l23.49,20.42,18.33,22.87L770,467.35H718.3l4.08-5.32a2.77,2.77,0,0,0-2.43-3.77Z" transform="translate(-38.54 -21.32)"/><path class="cls-7" d="M828.94,442.32s-18.85,18.79-46.45,20.83c-14.15-12.43-22.15-20.83-22.15-20.83L725.28,405l40.42-24.29Z" transform="translate(-38.54 -21.32)"/><path class="cls-5" d="M711.32,408.18s44.95,28.74,54.11,60.64a5.54,5.54,0,0,0,7.64,3.52l6.43-3a5.79,5.79,0,0,0,2.6-8c-7.38-13.49-28.05-47.94-52.36-59.38C717.66,403.67,711.32,408.18,711.32,408.18Z" transform="translate(-38.54 -21.32)"/><path class="cls-7" d="M789.45,61.86,738.53,95.29l-1.18-21.54a7.76,7.76,0,0,0-6.43-8.22l-2.14-.36,49.3-31Z" transform="translate(-38.54 -21.32)"/><polygon class="cls-5" points="810.01 194.17 736.08 6.83 739.08 5.31 819.16 193.6 810.01 194.17"/><path class="cls-7" d="M839.55,222.11s-7.29-12.65,3.77-14.89,20.34-6.31,23.79,4.8S839.55,222.11,839.55,222.11Z" transform="translate(-38.54 -21.32)"/><path class="cls-3" d="M714.51,361.79s-6.91-56.9,60.82-101.6,15,80.35,15,80.35Z" transform="translate(-38.54 -21.32)"/><path class="cls-6" d="M1011.4,238.2c40.32,28.62-27,108.8-98.37,135.3s-143.87,10.67-160.34-35.94c-16.18-45.82,29.22-109.48,103.43-126.37C934.72,193.31,981.79,217.19,1011.4,238.2Z" transform="translate(-38.54 -21.32)"/><path class="cls-5" d="M684.76,368.91a4.4,4.4,0,0,1,1.41-7.34l94.24-36.4s9.55-4.06,27.93,12.7c3.74,2.84,8.43,7.49,31.28,1.15s126.77-41,170.17-100c2-3.34,49.53-45.7,61.46-58.32,1.43-1.52,3.43-2.3,5.2-1.21h0a3.81,3.81,0,0,1,1.51,4.72l-50.39,64.64s24,116.68-69.51,171.55c-31.5,15.51-94.52,43.26-132.84,27.62-16.46-6.36-25.39-11.15-35.77-24-17.82-11.85-45.47-24.11-49.87-22.74s-32.69-11.84-32.69-11.84Z" transform="translate(-38.54 -21.32)"/><g class="cls-8"><path class="cls-3" d="M788.94,426.89s137.87-8,244.76-129.26c-2,29.86-5.1,32.92-5.1,32.92S967.66,419.4,808.68,445.44A33.59,33.59,0,0,1,788.94,426.89Z" transform="translate(-38.54 -21.32)"/></g><path class="cls-3" d="M654.41,419.89l14.33,16.27a6.89,6.89,0,0,0,8.71,1.35l107.73-64.78A6.88,6.88,0,0,0,786.54,362l-5.07-5.15a6.88,6.88,0,0,0-7.77-1.42l-117,53.66A6.87,6.87,0,0,0,654.41,419.89Z" transform="translate(-38.54 -21.32)"/><circle class="cls-7" cx="803.42" cy="354.25" r="18.2"/><path class="cls-6" d="M842,388.77a13.2,13.2,0,1,1,13.2-13.2A13.21,13.21,0,0,1,842,388.77Z" transform="translate(-38.54 -21.32)"/><circle class="cls-7" cx="871.82" cy="329.66" r="18.2"/><path class="cls-6" d="M910.36,364.18A13.2,13.2,0,1,1,923.55,351,13.21,13.21,0,0,1,910.36,364.18Z" transform="translate(-38.54 -21.32)"/><circle class="cls-7" cx="930.97" cy="294.53" r="18.2"/><path class="cls-6" d="M969.5,329.05a13.2,13.2,0,1,1,13.2-13.2A13.21,13.21,0,0,1,969.5,329.05Z" transform="translate(-38.54 -21.32)"/><circle class="cls-5" cx="736.83" cy="3.98" r="3.98"/><path class="cls-6" d="M658.86,458.88,348.08,613.24a2.23,2.23,0,0,0,.67,4.2h0a2.17,2.17,0,0,0,1.1-.11l354.69-132a2.23,2.23,0,0,0-.09-4.21c-16.77-5.38-31.67-12.53-43.18-22A2.25,2.25,0,0,0,658.86,458.88Z" transform="translate(-38.54 -21.32)"/><path class="cls-6" d="M637.18,415.08c-1.26-15.07,2.37-32.83,12.27-53.76a2.78,2.78,0,0,0-3.55-3.78L103.08,576.23a2.79,2.79,0,0,0,.64,5.35h0a2.7,2.7,0,0,0,1.23-.1L635.22,418A2.76,2.76,0,0,0,637.18,415.08Z" transform="translate(-38.54 -21.32)"/><path class="cls-6" d="M781.07,495,510.63,636.24a2.68,2.68,0,0,0,.85,5h0a2.66,2.66,0,0,0,1.34-.14L887,499.22a2.68,2.68,0,0,0-1.15-5.17c-22.68,1.72-62.31,3.67-103.37.69A2.7,2.7,0,0,0,781.07,495Z" transform="translate(-38.54 -21.32)"/></svg>